<svg width="75" height="75" viewBox="0 0 75 75" fill="none" xmlns="http://www.w3.org/2000/svg">
<path d="M42.8613 43.0051H48.9979L48.4504 43.8937L47.7288 44.9274L47.0386 45.8063L46.3131 46.651L42.8613 43.0051ZM42.8613 11.4017H49.0711L48.5171 10.5242L47.7869 9.50318L47.0885 8.63521L46.3543 7.80095L42.8613 11.4017ZM23.4325 75L46.5002 21.4349H51.9323L75 75H69.047L49.1046 28.4749L29.0134 75H23.4325ZM27.2348 54.4834C22.0755 54.4834 17.4124 53.3101 13.2453 50.9634C9.12787 48.6167 5.87854 45.3773 3.49736 41.2451C1.16579 37.062 0 32.3941 0 27.2417C0 22.0892 1.16579 17.4469 3.49736 13.3148C5.87854 9.13158 9.15267 5.86666 13.3197 3.51999C17.4868 1.17333 22.15 0 27.3092 0C31.1786 0 34.7504 0.663183 38.0245 1.98956C41.2986 3.31593 44.0723 5.25023 46.3543 7.80095L42.8613 11.4017C38.7934 7.16753 33.659 5.05042 27.458 5.05042C23.3405 5.05042 19.5951 6.0197 16.2218 7.95825C12.8485 9.89679 10.1944 12.5495 8.25973 15.9165C6.37463 19.2834 5.43207 23.0585 5.43207 27.2417C5.43207 31.4249 6.37463 35.1999 8.25973 38.5669C10.1944 41.9338 12.8485 44.5866 16.2218 46.5251C19.5951 48.4637 23.3405 49.433 27.458 49.433C33.7086 49.433 38.843 47.2903 42.8613 43.0051L46.3586 46.6017C44.0767 49.1524 41.2738 51.1164 37.9501 52.4938C34.676 53.8202 31.1042 54.4834 27.2348 54.4834Z" fill="black"/>
</svg>
