<svg xmlns="http://www.w3.org/2000/svg" xmlns:xlink="http://www.w3.org/1999/xlink" width="500" zoomAndPan="magnify" viewBox="0 0 375 374.999991" height="500" preserveAspectRatio="xMidYMid meet" version="1.0"><rect x="-37.5" width="450" fill="#ffffff" y="-37.499999" height="449.999989" fill-opacity="1"/><rect x="-37.5" width="450" fill="#ffffff" y="-37.499999" height="449.999989" fill-opacity="1"/><path fill="#000000" d="M 214.304688 215.027344 L 244.988281 215.027344 L 242.253906 219.46875 L 238.644531 224.636719 L 235.191406 229.03125 L 231.566406 233.253906 Z M 214.304688 57.007812 L 245.355469 57.007812 L 242.585938 52.621094 L 238.933594 47.515625 L 235.441406 43.175781 L 231.769531 39.003906 Z M 117.164062 375 L 232.5 107.175781 L 259.660156 107.175781 L 375 375 L 345.234375 375 L 245.523438 142.375 L 145.066406 375 Z M 136.175781 272.417969 C 110.378906 272.417969 87.0625 266.550781 66.226562 254.816406 C 45.640625 243.082031 29.394531 226.886719 17.488281 206.226562 C 5.828125 185.308594 0 161.96875 0 136.207031 C 0 110.445312 5.828125 87.234375 17.488281 66.574219 C 29.394531 45.65625 45.761719 29.332031 66.597656 17.601562 C 87.433594 5.867188 110.75 0 136.546875 0 C 155.894531 0 173.753906 3.316406 190.121094 9.949219 C 206.492188 16.578125 220.363281 26.25 231.769531 39.003906 L 214.304688 57.007812 C 193.96875 35.835938 168.296875 25.253906 137.289062 25.253906 C 116.703125 25.253906 97.976562 30.097656 81.109375 39.792969 C 64.242188 49.484375 50.972656 62.746094 41.296875 79.582031 C 31.875 96.417969 27.160156 115.292969 27.160156 136.207031 C 27.160156 157.125 31.875 176 41.296875 192.835938 C 50.972656 209.667969 64.242188 222.933594 81.109375 232.625 C 97.976562 242.320312 116.703125 247.164062 137.289062 247.164062 C 168.542969 247.164062 194.214844 236.453125 214.304688 215.027344 L 231.792969 233.007812 C 220.382812 245.761719 206.367188 255.582031 189.75 262.46875 C 173.378906 269.101562 155.519531 272.417969 136.175781 272.417969 Z M 136.175781 272.417969 " fill-opacity="1" fill-rule="nonzero"/></svg>